<svg width="208" height="38" viewBox="0 0 208 38" fill="none" xmlns="http://www.w3.org/2000/svg">
<path d="M30.9829 26.2727V35H29.1377V26.2727H30.9829ZM34.3989 35.1065C33.9017 35.1065 33.4514 34.9787 33.048 34.723C32.6474 34.4645 32.3293 34.0852 32.0935 33.5852C31.8605 33.0824 31.744 32.4659 31.744 31.7358C31.744 30.9858 31.8648 30.3622 32.1063 29.8651C32.3477 29.3651 32.6688 28.9915 33.0693 28.7443C33.4727 28.4943 33.9145 28.3693 34.3946 28.3693C34.7611 28.3693 35.0665 28.4318 35.3108 28.5568C35.558 28.679 35.7568 28.8324 35.9074 29.017C36.0608 29.1989 36.1773 29.3778 36.2568 29.554H36.3122V26.2727H38.1233V35H36.3335V33.9517H36.2568C36.1716 34.1335 36.0509 34.3139 35.8946 34.4929C35.7412 34.669 35.5409 34.8153 35.2938 34.9318C35.0494 35.0483 34.7511 35.1065 34.3989 35.1065ZM34.9741 33.6619C35.2668 33.6619 35.5139 33.5824 35.7156 33.4233C35.9202 33.2614 36.0764 33.0355 36.1844 32.7457C36.2952 32.456 36.3506 32.1165 36.3506 31.7273C36.3506 31.3381 36.2966 31 36.1886 30.7131C36.0807 30.4261 35.9244 30.2045 35.7199 30.0483C35.5153 29.892 35.2668 29.8139 34.9741 29.8139C34.6759 29.8139 34.4244 29.8949 34.2199 30.0568C34.0153 30.2187 33.8605 30.4432 33.7554 30.7301C33.6503 31.017 33.5977 31.3494 33.5977 31.7273C33.5977 32.108 33.6503 32.4446 33.7554 32.7372C33.8634 33.027 34.0182 33.2543 34.2199 33.419C34.4244 33.581 34.6759 33.6619 34.9741 33.6619ZM42.1188 35.1278C41.4455 35.1278 40.866 34.9915 40.3802 34.7188C39.8972 34.4432 39.525 34.054 39.2637 33.5511C39.0023 33.0455 38.8716 32.4474 38.8716 31.7571C38.8716 31.0838 39.0023 30.4929 39.2637 29.9844C39.525 29.4759 39.8929 29.0795 40.3674 28.7955C40.8446 28.5114 41.4043 28.3693 42.0463 28.3693C42.4782 28.3693 42.8802 28.4389 43.2523 28.5781C43.6273 28.7145 43.954 28.9205 44.2324 29.196C44.5137 29.4716 44.7324 29.8182 44.8887 30.2358C45.0449 30.6506 45.1231 31.1364 45.1231 31.6932V32.1918H39.5961V31.0668H43.4142C43.4142 30.8054 43.3574 30.5739 43.2438 30.3722C43.1302 30.1705 42.9725 30.0128 42.7708 29.8991C42.5719 29.7827 42.3404 29.7244 42.0762 29.7244C41.8006 29.7244 41.5563 29.7884 41.3432 29.9162C41.133 30.0412 40.9682 30.2102 40.8489 30.4233C40.7296 30.6335 40.6685 30.8679 40.6657 31.1264V32.196C40.6657 32.5199 40.7253 32.7997 40.8446 33.0355C40.9668 33.2713 41.1387 33.4531 41.3603 33.581C41.5819 33.7088 41.8446 33.7727 42.1486 33.7727C42.3503 33.7727 42.535 33.7443 42.7026 33.6875C42.8702 33.6307 43.0137 33.5455 43.133 33.4318C43.2523 33.3182 43.3432 33.179 43.4057 33.0142L45.0847 33.125C44.9995 33.5284 44.8248 33.8807 44.5606 34.1818C44.2992 34.4801 43.9611 34.7131 43.5463 34.8807C43.1344 35.0455 42.6586 35.1278 42.1188 35.1278ZM45.8277 35V28.4545H47.6431V35H45.8277ZM46.7396 27.6108C46.4698 27.6108 46.2382 27.5213 46.045 27.3423C45.8547 27.1605 45.7595 26.9432 45.7595 26.6903C45.7595 26.4403 45.8547 26.2259 46.045 26.0469C46.2382 25.8651 46.4698 25.7741 46.7396 25.7741C47.0095 25.7741 47.2396 25.8651 47.43 26.0469C47.6232 26.2259 47.7198 26.4403 47.7198 26.6903C47.7198 26.9432 47.6232 27.1605 47.43 27.3423C47.2396 27.5213 47.0095 27.6108 46.7396 27.6108ZM50.4837 35.1236C50.0661 35.1236 49.6939 35.0511 49.3672 34.9062C49.0405 34.7585 48.782 34.5412 48.5917 34.2543C48.4042 33.9645 48.3104 33.6037 48.3104 33.1719C48.3104 32.8082 48.3772 32.5028 48.5107 32.2557C48.6442 32.0085 48.8261 31.8097 49.0562 31.6591C49.2863 31.5085 49.5476 31.3949 49.8403 31.3182C50.1357 31.2415 50.4454 31.1875 50.7692 31.1562C51.1499 31.1165 51.4567 31.0795 51.6897 31.0455C51.9226 31.0085 52.0917 30.9545 52.1968 30.8835C52.3019 30.8125 52.3545 30.7074 52.3545 30.5682V30.5426C52.3545 30.2727 52.2692 30.0639 52.0988 29.9162C51.9312 29.7685 51.6925 29.6946 51.3829 29.6946C51.0562 29.6946 50.7962 29.767 50.603 29.9119C50.4099 30.054 50.282 30.233 50.2195 30.4489L48.5405 30.3125C48.6258 29.9148 48.7934 29.571 49.0434 29.2812C49.2934 28.9886 49.6158 28.7642 50.0107 28.608C50.4084 28.4489 50.8687 28.3693 51.3914 28.3693C51.755 28.3693 52.103 28.4119 52.4354 28.4972C52.7707 28.5824 53.0675 28.7145 53.3261 28.8935C53.5874 29.0724 53.7934 29.3026 53.9439 29.5838C54.0945 29.8622 54.1698 30.196 54.1698 30.5852V35H52.4482V34.0923H52.3971C52.292 34.2969 52.1513 34.4773 51.9752 34.6335C51.7991 34.7869 51.5874 34.9077 51.3403 34.9957C51.0931 35.081 50.8076 35.1236 50.4837 35.1236ZM51.0036 33.8707C51.2707 33.8707 51.5064 33.8182 51.711 33.7131C51.9155 33.6051 52.0761 33.4602 52.1925 33.2784C52.309 33.0966 52.3672 32.8906 52.3672 32.6605V31.9659C52.3104 32.0028 52.2323 32.0369 52.1329 32.0682C52.0363 32.0966 51.9269 32.1236 51.8047 32.1491C51.6826 32.1719 51.5604 32.1932 51.4383 32.2131C51.3161 32.2301 51.2053 32.2457 51.1059 32.2599C50.8928 32.2912 50.7067 32.3409 50.5476 32.4091C50.3886 32.4773 50.265 32.5696 50.1769 32.6861C50.0888 32.7997 50.0448 32.9418 50.0448 33.1122C50.0448 33.3594 50.1343 33.5483 50.3133 33.679C50.4951 33.8068 50.7252 33.8707 51.0036 33.8707ZM60.5442 30.321L58.8823 30.4233C58.8539 30.2812 58.7928 30.1534 58.699 30.0398C58.6053 29.9233 58.4817 29.831 58.3283 29.7628C58.1777 29.6918 57.9973 29.6562 57.7871 29.6562C57.5059 29.6562 57.2686 29.7159 57.0755 29.8352C56.8823 29.9517 56.7857 30.108 56.7857 30.304C56.7857 30.4602 56.8482 30.5923 56.9732 30.7003C57.0982 30.8082 57.3127 30.8949 57.6166 30.9602L58.8013 31.1989C59.4377 31.3295 59.9121 31.5398 60.2246 31.8295C60.5371 32.1193 60.6934 32.5 60.6934 32.9716C60.6934 33.4006 60.5669 33.777 60.3141 34.1009C60.0641 34.4247 59.7203 34.6776 59.2828 34.8594C58.8482 35.0384 58.3468 35.1278 57.7786 35.1278C56.9121 35.1278 56.2218 34.9474 55.7076 34.5866C55.1962 34.223 54.8965 33.7287 54.8084 33.1037L56.5939 33.0099C56.6479 33.2741 56.7786 33.4759 56.986 33.6151C57.1934 33.7514 57.459 33.8196 57.7828 33.8196C58.101 33.8196 58.3567 33.7585 58.5499 33.6364C58.7459 33.5114 58.8453 33.3509 58.8482 33.1548C58.8453 32.9901 58.7757 32.8551 58.6394 32.75C58.503 32.642 58.2928 32.5597 58.0087 32.5028L56.8752 32.277C56.236 32.1491 55.7601 31.9276 55.4476 31.6122C55.138 31.2969 54.9831 30.8949 54.9831 30.4062C54.9831 29.9858 55.0968 29.6236 55.324 29.3196C55.5541 29.0156 55.8766 28.7812 56.2914 28.6165C56.709 28.4517 57.1976 28.3693 57.7573 28.3693C58.584 28.3693 59.2345 28.544 59.709 28.8935C60.1863 29.2429 60.4647 29.7187 60.5442 30.321ZM63.6538 37.4545V28.4545H65.4436V29.554H65.5245C65.6041 29.3778 65.7191 29.1989 65.8697 29.017C66.0231 28.8324 66.222 28.679 66.4663 28.5568C66.7135 28.4318 67.0203 28.3693 67.3868 28.3693C67.864 28.3693 68.3044 28.4943 68.7078 28.7443C69.1112 28.9915 69.4336 29.3651 69.6751 29.8651C69.9166 30.3622 70.0373 30.9858 70.0373 31.7358C70.0373 32.4659 69.9194 33.0824 69.6836 33.5852C69.4507 34.0852 69.1325 34.4645 68.7291 34.723C68.3285 34.9787 67.8797 35.1065 67.3825 35.1065C67.0302 35.1065 66.7305 35.0483 66.4834 34.9318C66.239 34.8153 66.0387 34.669 65.8825 34.4929C65.7262 34.3139 65.6069 34.1335 65.5245 33.9517H65.4691V37.4545H63.6538ZM65.4308 31.7273C65.4308 32.1165 65.4848 32.456 65.5927 32.7457C65.7007 33.0355 65.8569 33.2614 66.0615 33.4233C66.266 33.5824 66.5146 33.6619 66.8072 33.6619C67.1027 33.6619 67.3527 33.581 67.5572 33.419C67.7618 33.2543 67.9166 33.027 68.0217 32.7372C68.1297 32.4446 68.1836 32.108 68.1836 31.7273C68.1836 31.3494 68.1311 31.017 68.026 30.7301C67.9209 30.4432 67.766 30.2187 67.5615 30.0568C67.3569 29.8949 67.1055 29.8139 66.8072 29.8139C66.5118 29.8139 66.2618 29.892 66.0572 30.0483C65.8555 30.2045 65.7007 30.4261 65.5927 30.7131C65.4848 31 65.4308 31.3381 65.4308 31.7273ZM72.634 35.1236C72.2164 35.1236 71.8443 35.0511 71.5176 34.9062C71.1909 34.7585 70.9323 34.5412 70.742 34.2543C70.5545 33.9645 70.4607 33.6037 70.4607 33.1719C70.4607 32.8082 70.5275 32.5028 70.661 32.2557C70.7945 32.0085 70.9764 31.8097 71.2065 31.6591C71.4366 31.5085 71.698 31.3949 71.9906 31.3182C72.286 31.2415 72.5957 31.1875 72.9195 31.1562C73.3002 31.1165 73.607 31.0795 73.84 31.0455C74.073 31.0085 74.242 30.9545 74.3471 30.8835C74.4522 30.8125 74.5048 30.7074 74.5048 30.5682V30.5426C74.5048 30.2727 74.4195 30.0639 74.2491 29.9162C74.0815 29.7685 73.8428 29.6946 73.5332 29.6946C73.2065 29.6946 72.9465 29.767 72.7534 29.9119C72.5602 30.054 72.4323 30.233 72.3698 30.4489L70.6909 30.3125C70.7761 29.9148 70.9437 29.571 71.1937 29.2812C71.4437 28.9886 71.7661 28.7642 72.161 28.608C72.5588 28.4489 73.019 28.3693 73.5417 28.3693C73.9053 28.3693 74.2534 28.4119 74.5857 28.4972C74.921 28.5824 75.2178 28.7145 75.4764 28.8935C75.7377 29.0724 75.9437 29.3026 76.0943 29.5838C76.2448 29.8622 76.3201 30.196 76.3201 30.5852V35H74.5985V34.0923H74.5474C74.4423 34.2969 74.3016 34.4773 74.1255 34.6335C73.9494 34.7869 73.7377 34.9077 73.4906 34.9957C73.2434 35.081 72.9579 35.1236 72.634 35.1236ZM73.1539 33.8707C73.421 33.8707 73.6568 33.8182 73.8613 33.7131C74.0659 33.6051 74.2264 33.4602 74.3428 33.2784C74.4593 33.0966 74.5176 32.8906 74.5176 32.6605V31.9659C74.4607 32.0028 74.3826 32.0369 74.2832 32.0682C74.1866 32.0966 74.0772 32.1236 73.9551 32.1491C73.8329 32.1719 73.7107 32.1932 73.5886 32.2131C73.4664 32.2301 73.3556 32.2457 73.2562 32.2599C73.0431 32.2912 72.857 32.3409 72.698 32.4091C72.5389 32.4773 72.4153 32.5696 72.3272 32.6861C72.2391 32.7997 72.1951 32.9418 72.1951 33.1122C72.1951 33.3594 72.2846 33.5483 72.4636 33.679C72.6454 33.8068 72.8755 33.8707 73.1539 33.8707ZM77.2485 35V28.4545H79.0084V29.5966H79.0766C79.1959 29.1903 79.3962 28.8835 79.6775 28.6761C79.9587 28.4659 80.2826 28.3608 80.6491 28.3608C80.74 28.3608 80.838 28.3665 80.9431 28.3778C81.0482 28.3892 81.1405 28.4048 81.2201 28.4247V30.0355C81.1349 30.0099 81.017 29.9872 80.8664 29.9673C80.7158 29.9474 80.578 29.9375 80.453 29.9375C80.186 29.9375 79.9474 29.9957 79.7371 30.1122C79.5297 30.2259 79.365 30.3849 79.2428 30.5895C79.1235 30.794 79.0638 31.0298 79.0638 31.2969V35H77.2485ZM83.3576 35.1236C82.94 35.1236 82.5679 35.0511 82.2412 34.9062C81.9144 34.7585 81.6559 34.5412 81.4656 34.2543C81.2781 33.9645 81.1843 33.6037 81.1843 33.1719C81.1843 32.8082 81.2511 32.5028 81.3846 32.2557C81.5181 32.0085 81.7 31.8097 81.9301 31.6591C82.1602 31.5085 82.4215 31.3949 82.7142 31.3182C83.0096 31.2415 83.3193 31.1875 83.6431 31.1562C84.0238 31.1165 84.3306 31.0795 84.5636 31.0455C84.7965 31.0085 84.9656 30.9545 85.0707 30.8835C85.1758 30.8125 85.2284 30.7074 85.2284 30.5682V30.5426C85.2284 30.2727 85.1431 30.0639 84.9727 29.9162C84.8051 29.7685 84.5664 29.6946 84.2568 29.6946C83.9301 29.6946 83.6701 29.767 83.4769 29.9119C83.2838 30.054 83.1559 30.233 83.0934 30.4489L81.4144 30.3125C81.4997 29.9148 81.6673 29.571 81.9173 29.2812C82.1673 28.9886 82.4897 28.7642 82.8846 28.608C83.2823 28.4489 83.7426 28.3693 84.2653 28.3693C84.6289 28.3693 84.9769 28.4119 85.3093 28.4972C85.6446 28.5824 85.9414 28.7145 86.2 28.8935C86.4613 29.0724 86.6673 29.3026 86.8179 29.5838C86.9684 29.8622 87.0437 30.196 87.0437 30.5852V35H85.3221V34.0923H85.271C85.1659 34.2969 85.0252 34.4773 84.8491 34.6335C84.673 34.7869 84.4613 34.9077 84.2142 34.9957C83.967 35.081 83.6815 35.1236 83.3576 35.1236ZM83.8775 33.8707C84.1446 33.8707 84.3804 33.8182 84.5849 33.7131C84.7894 33.6051 84.95 33.4602 85.0664 33.2784C85.1829 33.0966 85.2412 32.8906 85.2412 32.6605V31.9659C85.1843 32.0028 85.1062 32.0369 85.0068 32.0682C84.9102 32.0966 84.8008 32.1236 84.6787 32.1491C84.5565 32.1719 84.4343 32.1932 84.3122 32.2131C84.19 32.2301 84.0792 32.2457 83.9798 32.2599C83.7667 32.2912 83.5806 32.3409 83.4215 32.4091C83.2625 32.4773 83.1389 32.5696 83.0508 32.6861C82.9627 32.7997 82.9187 32.9418 82.9187 33.1122C82.9187 33.3594 83.0082 33.5483 83.1872 33.679C83.369 33.8068 83.5991 33.8707 83.8775 33.8707ZM90.2694 37.4545V28.4545H92.0592V29.554H92.1402C92.2197 29.3778 92.3348 29.1989 92.4853 29.017C92.6388 28.8324 92.8376 28.679 93.0819 28.5568C93.3291 28.4318 93.6359 28.3693 94.0024 28.3693C94.4797 28.3693 94.92 28.4943 95.3234 28.7443C95.7268 28.9915 96.0493 29.3651 96.2907 29.8651C96.5322 30.3622 96.653 30.9858 96.653 31.7358C96.653 32.4659 96.5351 33.0824 96.2993 33.5852C96.0663 34.0852 95.7481 34.4645 95.3447 34.723C94.9441 34.9787 94.4953 35.1065 93.9981 35.1065C93.6459 35.1065 93.3461 35.0483 93.099 34.9318C92.8547 34.8153 92.6544 34.669 92.4981 34.4929C92.3419 34.3139 92.2226 34.1335 92.1402 33.9517H92.0848V37.4545H90.2694ZM92.0464 31.7273C92.0464 32.1165 92.1004 32.456 92.2084 32.7457C92.3163 33.0355 92.4726 33.2614 92.6771 33.4233C92.8816 33.5824 93.1302 33.6619 93.4228 33.6619C93.7183 33.6619 93.9683 33.581 94.1728 33.419C94.3774 33.2543 94.5322 33.027 94.6373 32.7372C94.7453 32.4446 94.7993 32.108 94.7993 31.7273C94.7993 31.3494 94.7467 31.017 94.6416 30.7301C94.5365 30.4432 94.3816 30.2187 94.1771 30.0568C93.9726 29.8949 93.7211 29.8139 93.4228 29.8139C93.1274 29.8139 92.8774 29.892 92.6728 30.0483C92.4711 30.2045 92.3163 30.4261 92.2084 30.7131C92.1004 31 92.0464 31.3381 92.0464 31.7273ZM97.3832 35V28.4545H99.1431V29.5966H99.2113C99.3306 29.1903 99.5309 28.8835 99.8122 28.6761C100.093 28.4659 100.417 28.3608 100.784 28.3608C100.875 28.3608 100.973 28.3665 101.078 28.3778C101.183 28.3892 101.275 28.4048 101.355 28.4247V30.0355C101.27 30.0099 101.152 29.9872 101.001 29.9673C100.851 29.9474 100.713 29.9375 100.588 29.9375C100.321 29.9375 100.082 29.9957 99.8718 30.1122C99.6644 30.2259 99.4997 30.3849 99.3775 30.5895C99.2582 30.794 99.1985 31.0298 99.1985 31.2969V35H97.3832ZM103.492 35.1236C103.075 35.1236 102.703 35.0511 102.376 34.9062C102.049 34.7585 101.791 34.5412 101.6 34.2543C101.413 33.9645 101.319 33.6037 101.319 33.1719C101.319 32.8082 101.386 32.5028 101.519 32.2557C101.653 32.0085 101.835 31.8097 102.065 31.6591C102.295 31.5085 102.556 31.3949 102.849 31.3182C103.144 31.2415 103.454 31.1875 103.778 31.1562C104.159 31.1165 104.465 31.0795 104.698 31.0455C104.931 31.0085 105.1 30.9545 105.205 30.8835C105.31 30.8125 105.363 30.7074 105.363 30.5682V30.5426C105.363 30.2727 105.278 30.0639 105.107 29.9162C104.94 29.7685 104.701 29.6946 104.391 29.6946C104.065 29.6946 103.805 29.767 103.612 29.9119C103.418 30.054 103.291 30.233 103.228 30.4489L101.549 30.3125C101.634 29.9148 101.802 29.571 102.052 29.2812C102.302 28.9886 102.624 28.7642 103.019 28.608C103.417 28.4489 103.877 28.3693 104.4 28.3693C104.764 28.3693 105.112 28.4119 105.444 28.4972C105.779 28.5824 106.076 28.7145 106.335 28.8935C106.596 29.0724 106.802 29.3026 106.953 29.5838C107.103 29.8622 107.178 30.196 107.178 30.5852V35H105.457V34.0923H105.406C105.301 34.2969 105.16 34.4773 104.984 34.6335C104.808 34.7869 104.596 34.9077 104.349 34.9957C104.102 35.081 103.816 35.1236 103.492 35.1236ZM104.012 33.8707C104.279 33.8707 104.515 33.8182 104.72 33.7131C104.924 33.6051 105.085 33.4602 105.201 33.2784C105.318 33.0966 105.376 32.8906 105.376 32.6605V31.9659C105.319 32.0028 105.241 32.0369 105.141 32.0682C105.045 32.0966 104.935 32.1236 104.813 32.1491C104.691 32.1719 104.569 32.1932 104.447 32.2131C104.325 32.2301 104.214 32.2457 104.114 32.2599C103.901 32.2912 103.715 32.3409 103.556 32.4091C103.397 32.4773 103.274 32.5696 103.185 32.6861C103.097 32.7997 103.053 32.9418 103.053 33.1122C103.053 33.3594 103.143 33.5483 103.322 33.679C103.504 33.8068 103.734 33.8707 104.012 33.8707ZM111.588 28.4545V29.8182H107.647V28.4545H111.588ZM108.541 26.8864H110.357V32.9886C110.357 33.1562 110.382 33.2869 110.433 33.3807C110.485 33.4716 110.556 33.5355 110.647 33.5724C110.74 33.6094 110.848 33.6278 110.97 33.6278C111.056 33.6278 111.141 33.6207 111.226 33.6065C111.311 33.5895 111.377 33.5767 111.422 33.5682L111.708 34.919C111.617 34.9474 111.489 34.9801 111.324 35.017C111.159 35.0568 110.959 35.081 110.723 35.0895C110.286 35.1065 109.902 35.0483 109.573 34.9148C109.246 34.7812 108.992 34.5739 108.81 34.2926C108.628 34.0114 108.539 33.6562 108.541 33.2273V26.8864ZM112.291 35V28.4545H114.106V35H112.291ZM113.203 27.6108C112.933 27.6108 112.701 27.5213 112.508 27.3423C112.318 27.1605 112.223 26.9432 112.223 26.6903C112.223 26.4403 112.318 26.2259 112.508 26.0469C112.701 25.8651 112.933 25.7741 113.203 25.7741C113.473 25.7741 113.703 25.8651 113.893 26.0469C114.086 26.2259 114.183 26.4403 114.183 26.6903C114.183 26.9432 114.086 27.1605 113.893 27.3423C113.703 27.5213 113.473 27.6108 113.203 27.6108ZM118.038 35.1278C117.367 35.1278 116.791 34.9858 116.308 34.7017C115.828 34.4148 115.458 34.017 115.2 33.5085C114.944 33 114.816 32.4148 114.816 31.7528C114.816 31.0824 114.945 30.4943 115.204 29.9886C115.465 29.4801 115.836 29.0838 116.316 28.7997C116.796 28.5128 117.367 28.3693 118.029 28.3693C118.6 28.3693 119.1 28.473 119.529 28.6804C119.958 28.8878 120.298 29.179 120.548 29.554C120.798 29.929 120.935 30.3693 120.961 30.875H119.248C119.2 30.5483 119.072 30.2855 118.864 30.0866C118.66 29.8849 118.391 29.7841 118.059 29.7841C117.778 29.7841 117.532 29.8608 117.322 30.0142C117.114 30.1648 116.953 30.3849 116.836 30.6747C116.72 30.9645 116.661 31.3153 116.661 31.7273C116.661 32.1449 116.718 32.5 116.832 32.7926C116.948 33.0852 117.112 33.3082 117.322 33.4616C117.532 33.6151 117.778 33.6918 118.059 33.6918C118.266 33.6918 118.453 33.6491 118.617 33.5639C118.785 33.4787 118.923 33.3551 119.031 33.1932C119.141 33.0284 119.214 32.831 119.248 32.6009H120.961C120.933 33.1009 120.796 33.5412 120.552 33.9219C120.31 34.2997 119.977 34.5952 119.551 34.8082C119.124 35.0213 118.62 35.1278 118.038 35.1278ZM123.51 35.1236C123.092 35.1236 122.72 35.0511 122.393 34.9062C122.067 34.7585 121.808 34.5412 121.618 34.2543C121.43 33.9645 121.337 33.6037 121.337 33.1719C121.337 32.8082 121.403 32.5028 121.537 32.2557C121.67 32.0085 121.852 31.8097 122.082 31.6591C122.312 31.5085 122.574 31.3949 122.866 31.3182C123.162 31.2415 123.471 31.1875 123.795 31.1562C124.176 31.1165 124.483 31.0795 124.716 31.0455C124.949 31.0085 125.118 30.9545 125.223 30.8835C125.328 30.8125 125.381 30.7074 125.381 30.5682V30.5426C125.381 30.2727 125.295 30.0639 125.125 29.9162C124.957 29.7685 124.719 29.6946 124.409 29.6946C124.082 29.6946 123.822 29.767 123.629 29.9119C123.436 30.054 123.308 30.233 123.246 30.4489L121.567 30.3125C121.652 29.9148 121.819 29.571 122.069 29.2812C122.319 28.9886 122.642 28.7642 123.037 28.608C123.435 28.4489 123.895 28.3693 124.417 28.3693C124.781 28.3693 125.129 28.4119 125.462 28.4972C125.797 28.5824 126.094 28.7145 126.352 28.8935C126.614 29.0724 126.819 29.3026 126.97 29.5838C127.121 29.8622 127.196 30.196 127.196 30.5852V35H125.474V34.0923H125.423C125.318 34.2969 125.177 34.4773 125.001 34.6335C124.825 34.7869 124.614 34.9077 124.366 34.9957C124.119 35.081 123.834 35.1236 123.51 35.1236ZM124.03 33.8707C124.297 33.8707 124.533 33.8182 124.737 33.7131C124.942 33.6051 125.102 33.4602 125.219 33.2784C125.335 33.0966 125.393 32.8906 125.393 32.6605V31.9659C125.337 32.0028 125.258 32.0369 125.159 32.0682C125.062 32.0966 124.953 32.1236 124.831 32.1491C124.709 32.1719 124.587 32.1932 124.464 32.2131C124.342 32.2301 124.231 32.2457 124.132 32.2599C123.919 32.2912 123.733 32.3409 123.574 32.4091C123.415 32.4773 123.291 32.5696 123.203 32.6861C123.115 32.7997 123.071 32.9418 123.071 33.1122C123.071 33.3594 123.16 33.5483 123.339 33.679C123.521 33.8068 123.751 33.8707 124.03 33.8707ZM128.124 35V28.4545H129.884V29.5966H129.952C130.072 29.1903 130.272 28.8835 130.553 28.6761C130.835 28.4659 131.158 28.3608 131.525 28.3608C131.616 28.3608 131.714 28.3665 131.819 28.3778C131.924 28.3892 132.016 28.4048 132.096 28.4247V30.0355C132.011 30.0099 131.893 29.9872 131.742 29.9673C131.592 29.9474 131.454 29.9375 131.329 29.9375C131.062 29.9375 130.823 29.9957 130.613 30.1122C130.406 30.2259 130.241 30.3849 130.119 30.5895C129.999 30.794 129.94 31.0298 129.94 31.2969V35H128.124ZM136.667 31.2159V35H134.852V28.4545H136.582V29.6094H136.659C136.803 29.2287 137.046 28.9276 137.387 28.706C137.728 28.4815 138.142 28.3693 138.627 28.3693C139.082 28.3693 139.478 28.4688 139.816 28.6676C140.154 28.8665 140.417 29.1506 140.605 29.5199C140.792 29.8864 140.886 30.3239 140.886 30.8324V35H139.071V31.1562C139.073 30.7557 138.971 30.4432 138.764 30.2188C138.556 29.9915 138.271 29.8778 137.907 29.8778C137.663 29.8778 137.447 29.9304 137.259 30.0355C137.075 30.1406 136.93 30.294 136.825 30.4957C136.723 30.6946 136.67 30.9347 136.667 31.2159ZM143.703 35.1236C143.285 35.1236 142.913 35.0511 142.587 34.9062C142.26 34.7585 142.001 34.5412 141.811 34.2543C141.624 33.9645 141.53 33.6037 141.53 33.1719C141.53 32.8082 141.597 32.5028 141.73 32.2557C141.864 32.0085 142.045 31.8097 142.276 31.6591C142.506 31.5085 142.767 31.3949 143.06 31.3182C143.355 31.2415 143.665 31.1875 143.989 31.1562C144.369 31.1165 144.676 31.0795 144.909 31.0455C145.142 31.0085 145.311 30.9545 145.416 30.8835C145.521 30.8125 145.574 30.7074 145.574 30.5682V30.5426C145.574 30.2727 145.489 30.0639 145.318 29.9162C145.151 29.7685 144.912 29.6946 144.602 29.6946C144.276 29.6946 144.016 29.767 143.822 29.9119C143.629 30.054 143.501 30.233 143.439 30.4489L141.76 30.3125C141.845 29.9148 142.013 29.571 142.263 29.2812C142.513 28.9886 142.835 28.7642 143.23 28.608C143.628 28.4489 144.088 28.3693 144.611 28.3693C144.974 28.3693 145.322 28.4119 145.655 28.4972C145.99 28.5824 146.287 28.7145 146.545 28.8935C146.807 29.0724 147.013 29.3026 147.163 29.5838C147.314 29.8622 147.389 30.196 147.389 30.5852V35H145.668V34.0923H145.616C145.511 34.2969 145.371 34.4773 145.195 34.6335C145.018 34.7869 144.807 34.9077 144.56 34.9957C144.312 35.081 144.027 35.1236 143.703 35.1236ZM144.223 33.8707C144.49 33.8707 144.726 33.8182 144.93 33.7131C145.135 33.6051 145.295 33.4602 145.412 33.2784C145.528 33.0966 145.587 32.8906 145.587 32.6605V31.9659C145.53 32.0028 145.452 32.0369 145.352 32.0682C145.256 32.0966 145.146 32.1236 145.024 32.1491C144.902 32.1719 144.78 32.1932 144.658 32.2131C144.535 32.2301 144.425 32.2457 144.325 32.2599C144.112 32.2912 143.926 32.3409 143.767 32.4091C143.608 32.4773 143.484 32.5696 143.396 32.6861C143.308 32.7997 143.264 32.9418 143.264 33.1122C143.264 33.3594 143.354 33.5483 143.533 33.679C143.714 33.8068 143.945 33.8707 144.223 33.8707ZM150.615 37.4545V28.4545H152.405V29.554H152.486C152.565 29.3778 152.68 29.1989 152.831 29.017C152.984 28.8324 153.183 28.679 153.427 28.5568C153.675 28.4318 153.981 28.3693 154.348 28.3693C154.825 28.3693 155.265 28.4943 155.669 28.7443C156.072 28.9915 156.395 29.3651 156.636 29.8651C156.878 30.3622 156.998 30.9858 156.998 31.7358C156.998 32.4659 156.881 33.0824 156.645 33.5852C156.412 34.0852 156.094 34.4645 155.69 34.723C155.29 34.9787 154.841 35.1065 154.344 35.1065C153.991 35.1065 153.692 35.0483 153.444 34.9318C153.2 34.8153 153 34.669 152.844 34.4929C152.687 34.3139 152.568 34.1335 152.486 33.9517H152.43V37.4545H150.615ZM152.392 31.7273C152.392 32.1165 152.446 32.456 152.554 32.7457C152.662 33.0355 152.818 33.2614 153.023 33.4233C153.227 33.5824 153.476 33.6619 153.768 33.6619C154.064 33.6619 154.314 33.581 154.518 33.419C154.723 33.2543 154.878 33.027 154.983 32.7372C155.091 32.4446 155.145 32.108 155.145 31.7273C155.145 31.3494 155.092 31.017 154.987 30.7301C154.882 30.4432 154.727 30.2187 154.523 30.0568C154.318 29.8949 154.067 29.8139 153.768 29.8139C153.473 29.8139 153.223 29.892 153.018 30.0483C152.817 30.2045 152.662 30.4261 152.554 30.7131C152.446 31 152.392 31.3381 152.392 31.7273ZM159.595 35.1236C159.178 35.1236 158.805 35.0511 158.479 34.9062C158.152 34.7585 157.893 34.5412 157.703 34.2543C157.516 33.9645 157.422 33.6037 157.422 33.1719C157.422 32.8082 157.489 32.5028 157.622 32.2557C157.756 32.0085 157.937 31.8097 158.168 31.6591C158.398 31.5085 158.659 31.3949 158.952 31.3182C159.247 31.2415 159.557 31.1875 159.881 31.1562C160.261 31.1165 160.568 31.0795 160.801 31.0455C161.034 31.0085 161.203 30.9545 161.308 30.8835C161.413 30.8125 161.466 30.7074 161.466 30.5682V30.5426C161.466 30.2727 161.381 30.0639 161.21 29.9162C161.043 29.7685 160.804 29.6946 160.494 29.6946C160.168 29.6946 159.908 29.767 159.714 29.9119C159.521 30.054 159.393 30.233 159.331 30.4489L157.652 30.3125C157.737 29.9148 157.905 29.571 158.155 29.2812C158.405 28.9886 158.727 28.7642 159.122 28.608C159.52 28.4489 159.98 28.3693 160.503 28.3693C160.866 28.3693 161.214 28.4119 161.547 28.4972C161.882 28.5824 162.179 28.7145 162.437 28.8935C162.699 29.0724 162.905 29.3026 163.055 29.5838C163.206 29.8622 163.281 30.196 163.281 30.5852V35H161.56V34.0923H161.508C161.403 34.2969 161.263 34.4773 161.087 34.6335C160.91 34.7869 160.699 34.9077 160.452 34.9957C160.204 35.081 159.919 35.1236 159.595 35.1236ZM160.115 33.8707C160.382 33.8707 160.618 33.8182 160.822 33.7131C161.027 33.6051 161.187 33.4602 161.304 33.2784C161.42 33.0966 161.479 32.8906 161.479 32.6605V31.9659C161.422 32.0028 161.344 32.0369 161.244 32.0682C161.148 32.0966 161.038 32.1236 160.916 32.1491C160.794 32.1719 160.672 32.1932 160.55 32.2131C160.428 32.2301 160.317 32.2457 160.217 32.2599C160.004 32.2912 159.818 32.3409 159.659 32.4091C159.5 32.4773 159.376 32.5696 159.288 32.6861C159.2 32.7997 159.156 32.9418 159.156 33.1122C159.156 33.3594 159.246 33.5483 159.425 33.679C159.606 33.8068 159.837 33.8707 160.115 33.8707ZM166.025 31.2159V35H164.21V28.4545H165.94V29.6094H166.016C166.161 29.2287 166.404 28.9276 166.745 28.706C167.086 28.4815 167.499 28.3693 167.985 28.3693C168.44 28.3693 168.836 28.4688 169.174 28.6676C169.512 28.8665 169.775 29.1506 169.962 29.5199C170.15 29.8864 170.244 30.3239 170.244 30.8324V35H168.428V31.1562C168.431 30.7557 168.329 30.4432 168.122 30.2188C167.914 29.9915 167.629 29.8778 167.265 29.8778C167.021 29.8778 166.805 29.9304 166.617 30.0355C166.433 30.1406 166.288 30.294 166.183 30.4957C166.08 30.6946 166.028 30.9347 166.025 31.2159ZM173.606 35.1065C173.109 35.1065 172.659 34.9787 172.256 34.723C171.855 34.4645 171.537 34.0852 171.301 33.5852C171.068 33.0824 170.952 32.4659 170.952 31.7358C170.952 30.9858 171.072 30.3622 171.314 29.8651C171.555 29.3651 171.876 28.9915 172.277 28.7443C172.68 28.4943 173.122 28.3693 173.602 28.3693C173.969 28.3693 174.274 28.4318 174.518 28.5568C174.765 28.679 174.964 28.8324 175.115 29.017C175.268 29.1989 175.385 29.3778 175.464 29.554H175.52V26.2727H177.331V35H175.541V33.9517H175.464C175.379 34.1335 175.258 34.3139 175.102 34.4929C174.949 34.669 174.748 34.8153 174.501 34.9318C174.257 35.0483 173.959 35.1065 173.606 35.1065ZM174.182 33.6619C174.474 33.6619 174.721 33.5824 174.923 33.4233C175.128 33.2614 175.284 33.0355 175.392 32.7457C175.503 32.456 175.558 32.1165 175.558 31.7273C175.558 31.3381 175.504 31 175.396 30.7131C175.288 30.4261 175.132 30.2045 174.927 30.0483C174.723 29.892 174.474 29.8139 174.182 29.8139C173.883 29.8139 173.632 29.8949 173.427 30.0568C173.223 30.2187 173.068 30.4432 172.963 30.7301C172.858 31.017 172.805 31.3494 172.805 31.7273C172.805 32.108 172.858 32.4446 172.963 32.7372C173.071 33.027 173.226 33.2543 173.427 33.419C173.632 33.581 173.883 33.6619 174.182 33.6619ZM181.326 35.1278C180.653 35.1278 180.073 34.9915 179.588 34.7188C179.105 34.4432 178.733 34.054 178.471 33.5511C178.21 33.0455 178.079 32.4474 178.079 31.7571C178.079 31.0838 178.21 30.4929 178.471 29.9844C178.733 29.4759 179.1 29.0795 179.575 28.7955C180.052 28.5114 180.612 28.3693 181.254 28.3693C181.686 28.3693 182.088 28.4389 182.46 28.5781C182.835 28.7145 183.162 28.9205 183.44 29.196C183.721 29.4716 183.94 29.8182 184.096 30.2358C184.252 30.6506 184.331 31.1364 184.331 31.6932V32.1918H178.804V31.0668H182.622C182.622 30.8054 182.565 30.5739 182.451 30.3722C182.338 30.1705 182.18 30.0128 181.978 29.8991C181.779 29.7827 181.548 29.7244 181.284 29.7244C181.008 29.7244 180.764 29.7884 180.551 29.9162C180.34 30.0412 180.176 30.2102 180.056 30.4233C179.937 30.6335 179.876 30.8679 179.873 31.1264V32.196C179.873 32.5199 179.933 32.7997 180.052 33.0355C180.174 33.2713 180.346 33.4531 180.568 33.581C180.789 33.7088 181.052 33.7727 181.356 33.7727C181.558 33.7727 181.742 33.7443 181.91 33.6875C182.078 33.6307 182.221 33.5455 182.34 33.4318C182.46 33.3182 182.551 33.179 182.613 33.0142L184.292 33.125C184.207 33.5284 184.032 33.8807 183.768 34.1818C183.507 34.4801 183.169 34.7131 182.754 34.8807C182.342 35.0455 181.866 35.1278 181.326 35.1278ZM185.035 35V28.4545H186.765V29.6094H186.842C186.978 29.2259 187.206 28.9233 187.524 28.7017C187.842 28.4801 188.223 28.3693 188.666 28.3693C189.115 28.3693 189.497 28.4815 189.812 28.706C190.128 28.9276 190.338 29.2287 190.443 29.6094H190.511C190.645 29.2344 190.886 28.9347 191.236 28.7102C191.588 28.483 192.004 28.3693 192.484 28.3693C193.095 28.3693 193.591 28.5639 193.971 28.9531C194.355 29.3395 194.547 29.8878 194.547 30.598V35H192.736V30.956C192.736 30.5923 192.639 30.3196 192.446 30.1378C192.253 29.956 192.011 29.8651 191.721 29.8651C191.392 29.8651 191.135 29.9702 190.95 30.1804C190.765 30.3878 190.673 30.6619 190.673 31.0028V35H188.913V30.9176C188.913 30.5966 188.821 30.3409 188.636 30.1506C188.454 29.9602 188.214 29.8651 187.916 29.8651C187.714 29.8651 187.532 29.9162 187.37 30.0185C187.211 30.1179 187.085 30.2585 186.991 30.4403C186.897 30.6193 186.851 30.8295 186.851 31.071V35H185.035ZM195.501 35V28.4545H197.316V35H195.501ZM196.412 27.6108C196.143 27.6108 195.911 27.5213 195.718 27.3423C195.528 27.1605 195.432 26.9432 195.432 26.6903C195.432 26.4403 195.528 26.2259 195.718 26.0469C195.911 25.8651 196.143 25.7741 196.412 25.7741C196.682 25.7741 196.912 25.8651 197.103 26.0469C197.296 26.2259 197.393 26.4403 197.393 26.6903C197.393 26.9432 197.296 27.1605 197.103 27.3423C196.912 27.5213 196.682 27.6108 196.412 27.6108ZM200.157 35.1236C199.739 35.1236 199.367 35.0511 199.04 34.9062C198.713 34.7585 198.455 34.5412 198.264 34.2543C198.077 33.9645 197.983 33.6037 197.983 33.1719C197.983 32.8082 198.05 32.5028 198.184 32.2557C198.317 32.0085 198.499 31.8097 198.729 31.6591C198.959 31.5085 199.22 31.3949 199.513 31.3182C199.809 31.2415 200.118 31.1875 200.442 31.1562C200.823 31.1165 201.13 31.0795 201.362 31.0455C201.595 31.0085 201.764 30.9545 201.87 30.8835C201.975 30.8125 202.027 30.7074 202.027 30.5682V30.5426C202.027 30.2727 201.942 30.0639 201.772 29.9162C201.604 29.7685 201.365 29.6946 201.056 29.6946C200.729 29.6946 200.469 29.767 200.276 29.9119C200.083 30.054 199.955 30.233 199.892 30.4489L198.213 30.3125C198.299 29.9148 198.466 29.571 198.716 29.2812C198.966 28.9886 199.289 28.7642 199.684 28.608C200.081 28.4489 200.541 28.3693 201.064 28.3693C201.428 28.3693 201.776 28.4119 202.108 28.4972C202.443 28.5824 202.74 28.7145 202.999 28.8935C203.26 29.0724 203.466 29.3026 203.617 29.5838C203.767 29.8622 203.843 30.196 203.843 30.5852V35H202.121V34.0923H202.07C201.965 34.2969 201.824 34.4773 201.648 34.6335C201.472 34.7869 201.26 34.9077 201.013 34.9957C200.766 35.081 200.48 35.1236 200.157 35.1236ZM200.676 33.8707C200.943 33.8707 201.179 33.8182 201.384 33.7131C201.588 33.6051 201.749 33.4602 201.865 33.2784C201.982 33.0966 202.04 32.8906 202.04 32.6605V31.9659C201.983 32.0028 201.905 32.0369 201.806 32.0682C201.709 32.0966 201.6 32.1236 201.478 32.1491C201.355 32.1719 201.233 32.1932 201.111 32.2131C200.989 32.2301 200.878 32.2457 200.779 32.2599C200.566 32.2912 200.38 32.3409 200.22 32.4091C200.061 32.4773 199.938 32.5696 199.85 32.6861C199.762 32.7997 199.718 32.9418 199.718 33.1122C199.718 33.3594 199.807 33.5483 199.986 33.679C200.168 33.8068 200.398 33.8707 200.676 33.8707ZM205.832 35.1108C205.551 35.1108 205.309 35.0114 205.108 34.8125C204.909 34.6108 204.809 34.3693 204.809 34.0881C204.809 33.8097 204.909 33.571 205.108 33.3722C205.309 33.1733 205.551 33.0739 205.832 33.0739C206.105 33.0739 206.343 33.1733 206.548 33.3722C206.753 33.571 206.855 33.8097 206.855 34.0881C206.855 34.2756 206.807 34.4474 206.71 34.6037C206.616 34.7571 206.493 34.8807 206.339 34.9744C206.186 35.0653 206.017 35.1108 205.832 35.1108Z" fill="#FF82A0"/>
<path d="M6.07535 5.54545V23H1.33672V5.54545H6.07535ZM14.077 23H7.36109V5.54545H14.0088C15.8043 5.54545 17.3554 5.89489 18.6622 6.59375C19.9747 7.28693 20.9861 8.28693 21.6963 9.59375C22.4122 10.8949 22.7702 12.4545 22.7702 14.2727C22.7702 16.0909 22.4151 17.6534 21.7048 18.9602C20.9946 20.2614 19.9889 21.2614 18.6878 21.9602C17.3867 22.6534 15.8497 23 14.077 23ZM12.0997 18.9773H13.9065C14.7702 18.9773 15.506 18.8381 16.1139 18.5597C16.7276 18.2812 17.1935 17.8011 17.5117 17.1193C17.8355 16.4375 17.9975 15.4886 17.9975 14.2727C17.9975 13.0568 17.8327 12.108 17.5031 11.4261C17.1793 10.7443 16.702 10.2642 16.0713 9.98579C15.4463 9.70739 14.6793 9.56818 13.7702 9.56818H12.0997V18.9773ZM24.0027 23V5.54545H36.5822V9.36364H28.7413V12.3636H35.9345V16.1818H28.7413V19.1818H36.5481V23H24.0027ZM42.711 5.54545V23H37.9723V5.54545H42.711ZM48.5308 23H43.4172L49.1785 5.54545H55.6558L61.4172 23H56.3035L52.4854 10.3523H52.349L48.5308 23ZM47.5763 16.1136H57.1899V19.6591H47.5763V16.1136ZM70.8677 11C70.8222 10.4318 70.6092 9.98864 70.2285 9.67045C69.8535 9.35227 69.2825 9.19318 68.5154 9.19318C68.0268 9.19318 67.6262 9.25284 67.3137 9.37216C67.0069 9.4858 66.7796 9.64205 66.6319 9.84091C66.4842 10.0398 66.4075 10.267 66.4018 10.5227C66.3904 10.733 66.4273 10.9233 66.5126 11.0938C66.6035 11.2585 66.7455 11.4091 66.9387 11.5455C67.1319 11.6761 67.379 11.7955 67.6802 11.9034C67.9813 12.0114 68.3393 12.108 68.754 12.1932L70.1859 12.5C71.1518 12.7045 71.9785 12.9744 72.666 13.3097C73.3535 13.6449 73.916 14.0398 74.3535 14.4943C74.791 14.9432 75.112 15.4489 75.3165 16.0114C75.5268 16.5739 75.6347 17.1875 75.6404 17.8523C75.6347 19 75.3478 19.9716 74.7796 20.767C74.2114 21.5625 73.3989 22.1676 72.3421 22.5824C71.291 22.9972 70.0268 23.2045 68.5495 23.2045C67.0325 23.2045 65.7086 22.9801 64.5779 22.5312C63.4529 22.0824 62.5779 21.392 61.9529 20.4602C61.3336 19.5227 61.0211 18.3239 61.0154 16.8636H65.5154C65.5438 17.3977 65.6773 17.8466 65.916 18.2102C66.1546 18.5739 66.4898 18.8494 66.9217 19.0369C67.3592 19.2244 67.879 19.3182 68.4813 19.3182C68.987 19.3182 69.4103 19.2557 69.7512 19.1307C70.0921 19.0057 70.3506 18.8324 70.5268 18.6108C70.7029 18.3892 70.7938 18.1364 70.7995 17.8523C70.7938 17.5852 70.7058 17.3523 70.5353 17.1534C70.3705 16.9489 70.0978 16.767 69.7171 16.608C69.3364 16.4432 68.8222 16.2898 68.1745 16.1477L66.4359 15.7727C64.8904 15.4375 63.6717 14.8778 62.7796 14.0938C61.8933 13.304 61.4529 12.2273 61.4586 10.8636C61.4529 9.75568 61.7484 8.78693 62.345 7.95739C62.9472 7.12216 63.7796 6.47159 64.8421 6.00568C65.9103 5.53977 67.1347 5.30682 68.5154 5.30682C69.9245 5.30682 71.1433 5.54261 72.1717 6.0142C73.2001 6.4858 73.9927 7.15057 74.5495 8.00852C75.112 8.8608 75.3961 9.85795 75.4018 11H70.8677ZM87.0171 9.90909C86.9148 9.04545 86.5 8.375 85.7727 7.89773C85.0455 7.42045 84.1534 7.18182 83.0966 7.18182C82.3239 7.18182 81.6477 7.30682 81.0682 7.55682C80.4943 7.80682 80.0455 8.15057 79.7216 8.58807C79.4034 9.02557 79.2443 9.52273 79.2443 10.0795C79.2443 10.5455 79.3551 10.946 79.5767 11.2812C79.804 11.6108 80.0938 11.8864 80.446 12.108C80.7983 12.3239 81.1676 12.5028 81.554 12.6449C81.9404 12.7812 82.2955 12.892 82.6193 12.9773L84.3921 13.4545C84.8466 13.5739 85.3523 13.7386 85.9091 13.9489C86.4716 14.1591 87.0085 14.446 87.5199 14.8097C88.0369 15.1676 88.4631 15.6278 88.7983 16.1903C89.1335 16.7528 89.3011 17.4432 89.3011 18.2614C89.3011 19.2045 89.054 20.0568 88.5597 20.8182C88.071 21.5795 87.3551 22.1847 86.4119 22.6335C85.4744 23.0824 84.3352 23.3068 82.9943 23.3068C81.7443 23.3068 80.6619 23.1051 79.7472 22.7017C78.8381 22.2983 78.1222 21.7358 77.5994 21.0142C77.0824 20.2926 76.7898 19.4545 76.7216 18.5H78.9034C78.9602 19.1591 79.1818 19.7045 79.5682 20.1364C79.9602 20.5625 80.4546 20.8807 81.0511 21.0909C81.6534 21.2955 82.3011 21.3977 82.9943 21.3977C83.8011 21.3977 84.5256 21.267 85.1676 21.0057C85.8097 20.7386 86.3182 20.3693 86.6932 19.8977C87.0682 19.4205 87.2557 18.8636 87.2557 18.2273C87.2557 17.6477 87.0938 17.1761 86.7699 16.8125C86.446 16.4489 86.0199 16.1534 85.4915 15.9261C84.9631 15.6989 84.3921 15.5 83.7784 15.3295L81.6307 14.7159C80.2671 14.3239 79.1875 13.7642 78.3921 13.0369C77.5966 12.3097 77.1989 11.358 77.1989 10.1818C77.1989 9.20454 77.4631 8.35227 77.9915 7.625C78.5256 6.89205 79.2415 6.32386 80.1392 5.92045C81.0426 5.51136 82.0511 5.30682 83.1648 5.30682C84.2898 5.30682 85.2898 5.50852 86.1648 5.91193C87.0398 6.30966 87.733 6.85511 88.2443 7.54829C88.7614 8.24148 89.0341 9.02841 89.0625 9.90909H87.0171ZM92.5322 23H90.3163L96.7254 5.54545H98.9072L105.316 23H103.1L97.8845 8.30682H97.7481L92.5322 23ZM93.3504 16.1818H102.282V18.0568H93.3504V16.1818ZM118.53 5.54545H120.643V17.1023C120.643 18.2955 120.362 19.3608 119.799 20.2983C119.243 21.2301 118.456 21.9659 117.439 22.5057C116.422 23.0398 115.228 23.3068 113.859 23.3068C112.49 23.3068 111.297 23.0398 110.28 22.5057C109.263 21.9659 108.473 21.2301 107.91 20.2983C107.353 19.3608 107.075 18.2955 107.075 17.1023V5.54545H109.189V16.9318C109.189 17.7841 109.376 18.5426 109.751 19.2074C110.126 19.8665 110.66 20.3864 111.353 20.767C112.052 21.142 112.888 21.3295 113.859 21.3295C114.831 21.3295 115.666 21.142 116.365 20.767C117.064 20.3864 117.598 19.8665 117.967 19.2074C118.342 18.5426 118.53 17.7841 118.53 16.9318V5.54545ZM129.29 23H123.904V5.54545H129.529C131.222 5.54545 132.671 5.89489 133.876 6.59375C135.08 7.28693 136.004 8.28409 136.646 9.58523C137.288 10.8807 137.609 12.4318 137.609 14.2386C137.609 16.0568 137.285 17.6222 136.637 18.9347C135.989 20.2415 135.046 21.2472 133.808 21.9517C132.569 22.6506 131.063 23 129.29 23ZM126.018 21.125H129.154C130.597 21.125 131.793 20.8466 132.742 20.2898C133.691 19.733 134.398 18.9403 134.864 17.9119C135.33 16.8835 135.563 15.6591 135.563 14.2386C135.563 12.8295 135.333 11.6165 134.873 10.5994C134.413 9.5767 133.725 8.79261 132.81 8.24716C131.896 7.69602 130.756 7.42045 129.393 7.42045H126.018V21.125ZM140.09 23H137.874L144.283 5.54545H146.465L152.874 23H150.658L145.442 8.30682H145.306L140.09 23ZM140.908 16.1818H149.84V18.0568H140.908V16.1818ZM153.708 5.54545L158.89 20.2386H159.094L164.276 5.54545H166.492L160.083 23H157.901L151.492 5.54545H153.708ZM168.251 23V5.54545H178.785V7.42045H170.364V13.3182H178.239V15.1932H170.364V21.125H178.921V23H168.251ZM172.58 3.77273L174.66 -0.181819H177.012L174.353 3.77273H172.58ZM183.748 5.54545V23H181.634V5.54545H183.748ZM196.571 9.90909C196.469 9.04545 196.054 8.375 195.327 7.89773C194.6 7.42045 193.708 7.18182 192.651 7.18182C191.878 7.18182 191.202 7.30682 190.623 7.55682C190.049 7.80682 189.6 8.15057 189.276 8.58807C188.958 9.02557 188.799 9.52273 188.799 10.0795C188.799 10.5455 188.909 10.946 189.131 11.2812C189.358 11.6108 189.648 11.8864 190 12.108C190.353 12.3239 190.722 12.5028 191.108 12.6449C191.495 12.7812 191.85 12.892 192.174 12.9773L193.946 13.4545C194.401 13.5739 194.907 13.7386 195.463 13.9489C196.026 14.1591 196.563 14.446 197.074 14.8097C197.591 15.1676 198.017 15.6278 198.353 16.1903C198.688 16.7528 198.856 17.4432 198.856 18.2614C198.856 19.2045 198.608 20.0568 198.114 20.8182C197.625 21.5795 196.909 22.1847 195.966 22.6335C195.029 23.0824 193.89 23.3068 192.549 23.3068C191.299 23.3068 190.216 23.1051 189.302 22.7017C188.392 22.2983 187.677 21.7358 187.154 21.0142C186.637 20.2926 186.344 19.4545 186.276 18.5H188.458C188.515 19.1591 188.736 19.7045 189.123 20.1364C189.515 20.5625 190.009 20.8807 190.606 21.0909C191.208 21.2955 191.856 21.3977 192.549 21.3977C193.356 21.3977 194.08 21.267 194.722 21.0057C195.364 20.7386 195.873 20.3693 196.248 19.8977C196.623 19.4205 196.81 18.8636 196.81 18.2273C196.81 17.6477 196.648 17.1761 196.324 16.8125C196 16.4489 195.574 16.1534 195.046 15.9261C194.517 15.6989 193.946 15.5 193.333 15.3295L191.185 14.7159C189.821 14.3239 188.742 13.7642 187.946 13.0369C187.151 12.3097 186.753 11.358 186.753 10.1818C186.753 9.20454 187.017 8.35227 187.546 7.625C188.08 6.89205 188.796 6.32386 189.694 5.92045C190.597 5.51136 191.606 5.30682 192.719 5.30682C193.844 5.30682 194.844 5.50852 195.719 5.91193C196.594 6.30966 197.287 6.85511 197.799 7.54829C198.316 8.24148 198.588 9.02841 198.617 9.90909H196.571ZM205.905 5.54545L205.462 17.5455H201.575L201.132 5.54545H205.905ZM203.518 23.2727C202.859 23.2727 202.294 23.0426 201.822 22.5824C201.356 22.1165 201.126 21.5511 201.132 20.8864C201.126 20.2386 201.356 19.6847 201.822 19.2244C202.294 18.7642 202.859 18.5341 203.518 18.5341C204.143 18.5341 204.695 18.7642 205.172 19.2244C205.655 19.6847 205.899 20.2386 205.905 20.8864C205.899 21.3295 205.783 21.733 205.555 22.0966C205.334 22.4545 205.044 22.7415 204.686 22.9574C204.328 23.1676 203.939 23.2727 203.518 23.2727Z" fill="black"/>
</svg>
